<svg aria-hidden="true" style="position: absolute; width: 0; height: 0; overflow: hidden;" version="1.1"
   xmlns="http://www.w3.org/2000/svg" xmlns:xlink="http://www.w3.org/1999/xlink">
   <defs>
      <symbol id="icon-location" viewBox="0 0 20 20">
         <path
            d="M10.001 11.091c2.068 0 3.75-1.682 3.75-3.75s-1.682-3.75-3.75-3.75c-2.068 0-3.75 1.682-3.75 3.75s1.682 3.75 3.75 3.75zM10.001 4.216c1.724 0 3.125 1.401 3.125 3.125s-1.401 3.125-3.125 3.125c-1.724 0-3.125-1.401-3.125-3.125s1.401-3.125 3.125-3.125zM10 0c-4.136 0-7.5 3.322-7.5 7.501 0 4.375 3.751 8.851 6.485 11.996 0.010 0.012 0.449 0.503 0.991 0.503 0.001 0 0.046 0 0.048 0 0.542 0 0.981-0.491 0.991-0.503 2.736-3.146 6.486-7.621 6.486-11.996 0-4.178-3.364-7.501-7.501-7.501zM10.073 18.677c-0.013 0.012-0.051 0.040-0.084 0.061-0.006-0.017-0.053-0.054-0.081-0.083-2.291-2.636-6.158-7.084-6.158-11.154 0-3.446 2.804-6.251 6.25-6.251 3.447 0 6.251 2.804 6.251 6.251 0 4.070-3.867 8.518-6.178 11.176z">
         </path>
      </symbol>
      <symbol id="icon-mail" viewBox="0 0 20 20">
         <path
            d="M17.5 3.125h-15c-1.381 0-2.5 1.12-2.5 2.5v8.125c0 1.381 1.119 2.5 2.5 2.5h15c1.381 0 2.5-1.119 2.5-2.5v-8.125c0-1.38-1.119-2.5-2.5-2.5zM1.25 6.406l4.374 3.281-4.374 3.281v-6.563zM18.75 13.75c0 0.69-0.561 1.25-1.25 1.25h-15c-0.689 0-1.25-0.56-1.25-1.25l4.895-3.672 2.73 2.048c0.333 0.249 0.729 0.375 1.125 0.375s0.791-0.126 1.124-0.375l2.731-2.048 4.895 3.672zM18.75 12.969l-4.375-3.281 4.375-3.281v6.563zM10.749 11.626c-0.218 0.164-0.477 0.25-0.749 0.25s-0.532-0.087-0.75-0.25l-8-6.001c0-0.689 0.561-1.25 1.25-1.25h15c0.689 0 1.25 0.561 1.25 1.25l-8.001 6.001z">
         </path>
      </symbol>
      <symbol id="icon-phone" viewBox="0 0 16 20">
         <path
            d="M15.714 13.839c0 0.402-0.179 1.183-0.346 1.551-0.234 0.547-0.859 0.904-1.362 1.183-0.658 0.357-1.328 0.569-2.076 0.569-1.038 0-1.975-0.424-2.924-0.77-0.681-0.246-1.339-0.547-1.953-0.926-1.897-1.172-4.185-3.46-5.357-5.357-0.379-0.614-0.681-1.272-0.926-1.953-0.346-0.949-0.77-1.886-0.77-2.924 0-0.748 0.212-1.417 0.569-2.076 0.279-0.502 0.636-1.127 1.183-1.362 0.368-0.167 1.15-0.346 1.551-0.346 0.078 0 0.156 0 0.234 0.033 0.234 0.078 0.48 0.625 0.592 0.848 0.357 0.636 0.703 1.283 1.071 1.908 0.179 0.29 0.513 0.647 0.513 0.993 0 0.681-2.020 1.674-2.020 2.277 0 0.301 0.279 0.692 0.435 0.96 1.127 2.031 2.533 3.438 4.565 4.565 0.268 0.156 0.658 0.435 0.96 0.435 0.603 0 1.596-2.020 2.277-2.020 0.346 0 0.703 0.335 0.993 0.513 0.625 0.368 1.272 0.714 1.908 1.071 0.223 0.112 0.77 0.357 0.848 0.592 0.033 0.078 0.033 0.156 0.033 0.234z">
         </path>
      </symbol>
      <symbol id="icon-whatsapp" viewBox="0 0 17 20">
         <path
            d="M10.993 10.871c0.19 0 2.009 0.949 2.087 1.083 0.022 0.056 0.022 0.123 0.022 0.167 0 0.279-0.089 0.592-0.19 0.848-0.257 0.625-1.295 1.027-1.931 1.027-0.536 0-1.641-0.469-2.121-0.692-1.596-0.725-2.589-1.964-3.549-3.382-0.424-0.625-0.804-1.395-0.792-2.165v-0.089c0.022-0.737 0.29-1.261 0.826-1.763 0.167-0.156 0.346-0.246 0.58-0.246 0.134 0 0.268 0.033 0.413 0.033 0.301 0 0.357 0.089 0.469 0.379 0.078 0.19 0.647 1.708 0.647 1.819 0 0.424-0.77 0.904-0.77 1.161 0 0.056 0.022 0.112 0.056 0.167 0.246 0.525 0.714 1.127 1.138 1.529 0.513 0.491 1.060 0.815 1.685 1.127 0.078 0.045 0.156 0.078 0.246 0.078 0.335 0 0.893-1.083 1.183-1.083zM8.728 16.786c3.862 0 7.009-3.147 7.009-7.009s-3.147-7.009-7.009-7.009-7.009 3.147-7.009 7.009c0 1.473 0.469 2.913 1.339 4.107l-0.882 2.6 2.701-0.859c1.138 0.748 2.489 1.161 3.85 1.161zM8.728 1.362c4.643 0 8.415 3.772 8.415 8.415s-3.772 8.415-8.415 8.415c-1.417 0-2.824-0.357-4.074-1.049l-4.654 1.496 1.518-4.52c-0.792-1.306-1.205-2.813-1.205-4.342 0-4.643 3.772-8.415 8.415-8.415z">
         </path>
      </symbol>
      <symbol id="icon-linkedin" viewBox="0 0 17 20">
         <path
            d="M2.645 15.781h2.578v-7.746h-2.578v7.746zM5.391 5.647c-0.011-0.759-0.558-1.339-1.44-1.339s-1.462 0.58-1.462 1.339c0 0.737 0.558 1.339 1.429 1.339h0.011c0.904 0 1.462-0.603 1.462-1.339zM11.92 15.781h2.578v-4.442c0-2.377-1.272-3.482-2.969-3.482-1.384 0-1.998 0.77-2.333 1.306h0.022v-1.127h-2.578s0.033 0.725 0 7.746v0h2.578v-4.33c0-0.223 0.011-0.458 0.078-0.625 0.19-0.458 0.614-0.938 1.328-0.938 0.926 0 1.295 0.703 1.295 1.752v4.141zM17.143 4.643v10.714c0 1.775-1.44 3.214-3.214 3.214h-10.714c-1.775 0-3.214-1.44-3.214-3.214v-10.714c0-1.775 1.44-3.214 3.214-3.214h10.714c1.775 0 3.214 1.44 3.214 3.214z">
         </path>
      </symbol>
      <symbol id="icon-telegram" viewBox="0 0 20 20">
         <path
            d="M13.27 14.587l1.641-7.734c0.145-0.681-0.246-0.949-0.692-0.781l-9.643 3.717c-0.658 0.257-0.647 0.625-0.112 0.792l2.467 0.77 5.725-3.605c0.268-0.179 0.513-0.078 0.313 0.1l-4.632 4.185-0.179 2.545c0.257 0 0.368-0.112 0.502-0.246l1.205-1.161 2.5 1.842c0.458 0.257 0.781 0.123 0.904-0.424zM20 10c0 5.525-4.475 10-10 10s-10-4.475-10-10 4.475-10 10-10 10 4.475 10 10z">
         </path>
      </symbol>
      <symbol id="icon-viber" viewBox="0 0 20 20">
         <path
            d="M9.498 0.002c-1.604 0.022-5.056 0.285-6.987 2.054-1.433 1.425-1.934 3.526-1.992 6.127-0.050 2.592-0.108 7.458 4.583 8.784v2.017c0 0-0.032 0.808 0.502 0.975 0.658 0.208 1.033-0.416 1.658-1.082l1.167-1.317c3.208 0.267 5.667-0.349 5.95-0.441 0.65-0.208 4.318-0.676 4.918-5.543 0.617-5.026-0.3-8.193-1.95-9.626l-0.008-0.002c-0.5-0.458-2.5-1.917-6.975-1.933 0 0-0.33-0.021-0.865-0.013zM9.554 1.416c0.454-0.002 0.733 0.017 0.733 0.017 3.783 0.008 5.592 1.15 6.017 1.533 1.392 1.191 2.107 4.047 1.583 8.243-0.5 4.067-3.475 4.325-4.025 4.5-0.233 0.075-2.4 0.608-5.127 0.433 0 0-2.033 2.451-2.666 3.084-0.1 0.108-0.217 0.142-0.292 0.125-0.108-0.025-0.142-0.158-0.133-0.342l0.017-3.349c-3.976-1.1-3.743-5.252-3.701-7.418 0.050-2.167 0.458-3.943 1.667-5.143 1.631-1.475 4.563-1.675 5.926-1.683zM9.854 3.583c-0 0-0.001 0-0.001 0-0.138 0-0.249 0.112-0.249 0.249 0 0 0 0 0 0v0c0 0.138 0.112 0.25 0.25 0.25v0c0.027-0.001 0.058-0.001 0.090-0.001 1.271 0 2.425 0.506 3.27 1.327l-0.001-0.001c0.908 0.883 1.351 2.067 1.367 3.617 0 0.138 0.112 0.25 0.25 0.25v0-0.008c0.138 0 0.25-0.112 0.25-0.25v0c0.003-0.068 0.005-0.148 0.005-0.228 0-1.454-0.577-2.773-1.515-3.74l0.001 0.001c-0.992-0.967-2.243-1.467-3.717-1.467zM6.559 4.157c-0.034-0.005-0.073-0.008-0.112-0.008-0.147 0-0.286 0.040-0.404 0.11l0.004-0.002h-0.010c-0.342 0.2-0.657 0.45-0.957 0.783-0.225 0.267-0.351 0.532-0.384 0.791-0.005 0.040-0.009 0.086-0.009 0.133 0 0.114 0.018 0.223 0.052 0.326l-0.002-0.007 0.017 0.008c0.286 0.832 0.624 1.547 1.029 2.218l-0.029-0.051c0.56 1.005 1.201 1.873 1.938 2.648l-0.005-0.005 0.025 0.033 0.033 0.025 0.050 0.050c0.773 0.734 1.642 1.378 2.585 1.908l0.065 0.034c1.1 0.6 1.768 0.883 2.168 1v0.008c0.117 0.033 0.223 0.050 0.332 0.050 0.356-0.027 0.674-0.171 0.92-0.394l-0.001 0.001c0.325-0.292 0.583-0.615 0.775-0.957v-0.008c0.192-0.358 0.125-0.701-0.15-0.934-0.528-0.464-1.114-0.888-1.738-1.254l-0.053-0.029c-0.425-0.233-0.858-0.092-1.033 0.142l-0.375 0.474c-0.192 0.233-0.542 0.2-0.542 0.2l-0.010 0.008c-2.6-0.667-3.292-3.299-3.292-3.299s-0.033-0.358 0.208-0.542l0.467-0.375c0.225-0.183 0.383-0.617 0.142-1.042-0.395-0.678-0.819-1.264-1.294-1.804l0.011 0.013c-0.104-0.128-0.249-0.218-0.416-0.249l-0.004-0.001zM10.287 4.899c-0.138 0-0.249 0.112-0.249 0.25s0.112 0.25 0.25 0.25c0 0 0.001 0 0.001 0h-0c0.868 0.016 1.647 0.38 2.208 0.958l0.001 0.001c0.469 0.516 0.756 1.204 0.756 1.959 0 0.064-0.002 0.128-0.006 0.191l0-0.009c0 0.138 0.112 0.249 0.25 0.249 0 0 0 0 0 0v0l0.008 0.010c0 0 0 0 0 0 0.138 0 0.25-0.112 0.25-0.25 0-0 0-0.001 0-0.001v0c0.025-0.992-0.283-1.825-0.892-2.492s-1.458-1.042-2.542-1.117c-0.005-0-0.011-0.001-0.018-0.001s-0.012 0-0.018 0.001l0.001-0zM10.695 6.248c-0.002-0-0.005-0-0.008-0-0.141 0-0.255 0.114-0.255 0.255 0 0.138 0.11 0.25 0.247 0.255h0c0.825 0.042 1.225 0.458 1.275 1.317 0.005 0.134 0.115 0.242 0.25 0.242 0 0 0 0 0 0h0.008c0.135-0.004 0.242-0.115 0.242-0.25 0-0.006-0-0.012-0.001-0.018l0 0.001c-0.058-1.117-0.667-1.743-1.75-1.801-0.001-0-0.003-0-0.005-0s-0.004 0-0.005 0h0z">
         </path>
      </symbol>
      <symbol id="icon-github" viewBox="0 0 20 20">
         <path
            d="M10 0.247c-5.525 0-10 4.478-10 10 0 4.419 2.865 8.167 6.837 9.487 0.5 0.094 0.683-0.215 0.683-0.481 0-0.237-0.008-0.867-0.012-1.7-2.782 0.603-3.368-1.342-3.368-1.342-0.455-1.154-1.113-1.463-1.113-1.463-0.906-0.62 0.070-0.607 0.070-0.607 1.004 0.070 1.532 1.030 1.532 1.030 0.892 1.529 2.341 1.087 2.913 0.832 0.090-0.647 0.348-1.088 0.633-1.338-2.221-0.25-4.555-1.11-4.555-4.942 0-1.092 0.388-1.983 1.029-2.683-0.112-0.252-0.45-1.269 0.087-2.647 0 0 0.838-0.268 2.75 1.025 0.8-0.222 1.65-0.332 2.5-0.338 0.85 0.005 1.7 0.115 2.5 0.337 1.9-1.293 2.737-1.025 2.737-1.025 0.537 1.377 0.2 2.394 0.1 2.647 0.638 0.7 1.025 1.592 1.025 2.683 0 3.842-2.338 4.688-4.563 4.933 0.35 0.3 0.675 0.913 0.675 1.85 0 1.338-0.013 2.413-0.013 2.738 0 0.262 0.175 0.575 0.688 0.475 4.001-1.312 6.863-5.062 6.863-9.474 0-5.522-4.478-10-10-10z">
         </path>
      </symbol>
   </defs>
</svg>